<svg width="140" height="140" viewBox="0 0 140 140" fill="none" xmlns="http://www.w3.org/2000/svg">
<mask id="mask0_481_162" style="mask-type:luminance" maskUnits="userSpaceOnUse" x="0" y="0" width="140" height="140">
<path d="M0 0H139.174V139.174H0V0Z" fill="white"/>
</mask>
<g mask="url(#mask0_481_162)">
<path d="M74.5574 89.4696L44.7344 94.8377L49.7049 64.6171L106.667 7.85398C107.591 6.92223 108.691 6.18267 109.902 5.67798C111.113 5.17329 112.413 4.91345 113.725 4.91345C115.037 4.91345 116.336 5.17329 117.548 5.67798C118.759 6.18267 119.859 6.92223 120.783 7.85398L131.32 18.3914C132.252 19.3156 132.992 20.415 133.497 21.6264C134.002 22.8379 134.261 24.1372 134.261 25.4496C134.261 26.7619 134.002 28.0613 133.497 29.2727C132.992 30.4841 132.252 31.5835 131.32 32.5077L74.5574 89.4696Z" stroke="black" stroke-width="9.941" stroke-linecap="round" stroke-linejoin="round"/>
<path d="M119.292 94.4395V124.262C119.292 126.899 118.244 129.428 116.381 131.292C114.517 133.156 111.988 134.203 109.351 134.203H14.9117C12.2752 134.203 9.74666 133.156 7.88235 131.292C6.01806 129.428 4.9707 126.899 4.9707 124.262V29.823C4.9707 27.1864 6.01806 24.6579 7.88235 22.7936C9.74666 20.9293 12.2752 19.882 14.9117 19.882H44.7347" stroke="black" stroke-width="9.941" stroke-linecap="round" stroke-linejoin="round"/>
</g>
</svg>
